<svg width="155" height="24" viewBox="0 0 155 24" fill="none" xmlns="http://www.w3.org/2000/svg">
<path d="M7.62153 12.144H13.7019C14.6266 12.144 15.4065 11.8449 16.0416 11.2467C16.6861 10.6486 17.0084 9.79808 17.0084 8.69523C17.0084 7.88212 16.6721 7.15312 15.9996 6.50824C15.3271 5.85401 14.5612 5.52689 13.7019 5.52689H5.04366V23.6958H4.03493V4.51751H13.7019C14.8414 4.51751 15.8455 4.94276 16.7141 5.79326C17.5828 6.63441 18.0171 7.60174 18.0171 8.69523C18.0171 10.0411 17.5968 11.1206 16.7562 11.9337C15.9156 12.7468 14.8975 13.1533 13.7019 13.1533H7.62153V12.144ZM7.62153 14.1627H13.7019C15.159 14.1627 16.4106 13.6534 17.4567 12.6346C18.5028 11.6066 19.0258 10.2934 19.0258 8.69523C19.0258 7.32135 18.4888 6.1157 17.4146 5.07828C16.3499 4.03151 15.1123 3.50813 13.7019 3.50813H3.0262V23.6958H2.01746V2.49875H13.7019C14.8134 2.49875 15.8548 2.7838 16.8262 3.35392C17.8069 3.92403 18.5868 4.69041 19.1659 5.65307C19.745 6.60637 20.0345 7.62043 20.0345 8.69523C20.0345 10.5364 19.4088 12.0785 18.1572 13.3216C16.9149 14.5553 15.4299 15.1721 13.7019 15.1721H7.62153V14.1627ZM7.62153 16.1815H13.7019C15.0096 16.1815 16.2238 15.859 17.3446 15.2142C18.4654 14.5693 19.3621 13.672 20.0345 12.5225C20.707 11.3636 21.0433 10.0878 21.0433 8.69523C21.0433 7.4335 20.707 6.25122 20.0345 5.14837C19.3714 4.03618 18.4747 3.1483 17.3446 2.48473C16.2144 1.82115 15.0002 1.48936 13.7019 1.48936H1.00873V23.6958H0V0.47998H13.7019C15.1683 0.47998 16.546 0.858499 17.835 1.61554C19.1239 2.36323 20.1466 3.37261 20.9032 4.64368C21.6691 5.90541 22.052 7.25593 22.052 8.69523C22.052 10.3588 21.6924 11.8215 20.9732 13.0832C20.2634 14.345 19.2967 15.331 18.0731 16.0413L20.679 23.6958H19.6142L17.1204 16.5179C16.7468 16.6675 16.462 16.7703 16.2658 16.8264L18.6055 23.6958H17.5407L15.2571 17.0647C15.173 17.0834 14.8741 17.1161 14.3604 17.1628L16.532 23.6958H15.4672L13.3237 17.1909H12.413L14.4585 23.6958H13.3937L11.3342 17.1909H7.62153V16.1815ZM7.06113 23.6958H6.05239V6.53628H13.7019C14.3277 6.53628 14.8648 6.75124 15.3131 7.18116C15.7708 7.60173 15.9996 8.10643 15.9996 8.69523C15.9996 10.3215 15.2337 11.1346 13.7019 11.1346H7.62153V10.1252H13.7019C14.1036 10.1252 14.4165 10.0224 14.6406 9.81677C14.8741 9.60181 14.9909 9.22796 14.9909 8.69523C14.9909 8.36812 14.8648 8.09708 14.6126 7.88212C14.3698 7.65781 14.0662 7.54566 13.7019 7.54566H7.06113V23.6958Z" fill="#5BFFDA"/>
<path d="M29.2532 23.6958H28.2445V0.47998H29.2532V23.6958ZM27.2358 23.6958H26.227V0.47998H27.2358V23.6958ZM25.2183 23.6958H24.2096V0.47998H25.2183V23.6958ZM31.2707 18.6489H42.0025V19.6582H31.2707V20.6676H42.0025V21.677H31.2707V22.6864H42.0025V23.6958H30.262V0.47998H42.0025V1.48936H31.2707V2.49875H42.0025V3.50813H31.2707V4.51751H42.0025V5.52689H31.2707V9.56442H36.7767V10.5738H31.2707V11.5832H36.7767V12.5926H31.2707V13.602H36.7767V14.6113H31.2707V18.6489Z" fill="#5BFFDA"/>
<path d="M62.0362 15.6067C62.0362 15.2422 61.9241 14.9992 61.6999 14.8777C61.4851 14.7562 61.1676 14.6955 60.7473 14.6955H54.2465V13.6861H60.7473C62.279 13.6861 63.0449 14.3263 63.0449 15.6067C63.0449 16.3264 62.8348 16.8451 62.4145 17.1628C61.9942 17.4806 61.4384 17.6395 60.7473 17.6395H54.2465V16.6301H60.7473C61.6065 16.6301 62.0362 16.289 62.0362 15.6067ZM53.6861 23.6958H52.6774V6.53628H60.7473C61.3824 6.53628 61.9241 6.73254 62.3724 7.12508C62.8208 7.50827 63.0449 7.9896 63.0449 8.56906C63.0449 9.33544 62.8348 9.89154 62.4145 10.2373C61.9942 10.5738 61.4384 10.742 60.7473 10.742H54.2465V9.73265H60.7473C61.6065 9.73265 62.0362 9.34479 62.0362 8.56906C62.0362 8.25129 61.9148 8.00362 61.6719 7.82604C61.4291 7.63912 61.1209 7.54566 60.7473 7.54566H53.6861V23.6958ZM54.2465 11.7514H60.7473C61.6719 11.7514 62.4518 11.4757 63.087 10.9243C63.7314 10.3635 64.0537 9.57844 64.0537 8.56906C64.0537 7.75595 63.7174 7.04564 63.0449 6.43814C62.3818 5.83064 61.6159 5.52689 60.7473 5.52689H51.6687V23.6958H50.6599V4.51751H60.7473C61.8961 4.51751 62.9001 4.92407 63.7594 5.73718C64.6281 6.54095 65.0624 7.48491 65.0624 8.56906C65.0624 9.41956 64.8616 10.1626 64.4599 10.7981C64.0677 11.4337 63.5353 11.9243 62.8628 12.2701C64.3292 12.7935 65.0624 13.859 65.0624 15.4665C65.0624 16.7376 64.6421 17.7563 63.8015 18.5227C62.9609 19.2797 61.9428 19.6582 60.7473 19.6582H54.2465V18.6489H60.7473C61.6719 18.6489 62.4518 18.3732 63.087 17.8217C63.7314 17.261 64.0537 16.4759 64.0537 15.4665C64.0537 14.7842 63.8108 14.1814 63.3251 13.658C62.8394 13.1346 62.1249 12.8309 61.1816 12.7468C61.0882 12.7561 60.9434 12.7608 60.7473 12.7608H54.2465V11.7514ZM67.0798 8.56906C67.0798 9.87752 66.6175 11.0598 65.6928 12.1159C66.6175 13.144 67.0798 14.2609 67.0798 15.4665C67.0798 16.6348 66.7856 17.7002 66.1972 18.6629C65.6181 19.6162 64.8429 20.3592 63.8715 20.8919C62.9095 21.4153 61.8681 21.677 60.7473 21.677H54.2465V20.6676H60.7473C62.2043 20.6676 63.4559 20.1816 64.502 19.2096C65.5481 18.2283 66.0711 16.9806 66.0711 15.4665C66.0711 14.9244 65.931 14.3263 65.6508 13.672C65.3799 13.0085 65.0017 12.5038 64.516 12.158C65.5527 11.186 66.0711 9.98967 66.0711 8.56906C66.0711 7.20452 65.5387 6.02224 64.474 5.0222C63.4092 4.01282 62.1669 3.50813 60.7473 3.50813H49.6512V23.6958H48.6425V2.49875H60.7473C61.8587 2.49875 62.9001 2.77446 63.8715 3.32588C64.8522 3.86795 65.6321 4.61097 66.2112 5.55493C66.7903 6.48954 67.0798 7.49425 67.0798 8.56906ZM66.8417 12.172C67.6729 11.0598 68.0886 9.85883 68.0886 8.56906C68.0886 7.30733 67.7523 6.13439 67.0798 5.05024C66.4167 3.95674 65.5201 3.09223 64.3899 2.45669C63.2597 1.8118 62.0455 1.48936 60.7473 1.48936H47.6337V23.6958H46.625V0.47998H60.7473C62.223 0.47998 63.6007 0.84448 64.8803 1.57348C66.1692 2.30248 67.1919 3.29317 67.9485 4.54555C68.7144 5.78858 69.0973 7.12976 69.0973 8.56906C69.0973 9.94294 68.7097 11.1486 67.9345 12.186C68.7097 13.2608 69.0973 14.3543 69.0973 15.4665C69.0973 16.7189 68.8732 17.8685 68.4248 18.9152C67.9765 19.9527 67.3694 20.8172 66.6035 21.5088C65.847 22.2004 64.9643 22.7378 63.9556 23.121C62.9468 23.5042 61.8774 23.6958 60.7473 23.6958H54.2465V22.6864H60.7473C61.728 22.6864 62.6666 22.5041 63.5633 22.1396C64.4599 21.7658 65.2398 21.2611 65.903 20.6256C66.5661 19.99 67.0939 19.2237 67.4861 18.3264C67.8878 17.4292 68.0886 16.4759 68.0886 15.4665C68.0886 15.0179 67.9812 14.4805 67.7663 13.8543C67.5609 13.2188 67.2526 12.658 66.8417 12.172Z" fill="white"/>
<path d="M78.9885 12.144H85.0689C85.9936 12.144 86.7735 11.8449 87.4086 11.2467C88.0531 10.6486 88.3753 9.79808 88.3753 8.69523C88.3753 7.88212 88.0391 7.15312 87.3666 6.50824C86.6941 5.85401 85.9282 5.52689 85.0689 5.52689H76.4106V23.6958H75.4019V4.51751H85.0689C86.2084 4.51751 87.2125 4.94276 88.0811 5.79326C88.9497 6.63441 89.384 7.60174 89.384 8.69523C89.384 10.0411 88.9637 11.1206 88.1231 11.9337C87.2825 12.7468 86.2644 13.1533 85.0689 13.1533H78.9885V12.144ZM78.9885 14.1627H85.0689C86.526 14.1627 87.7775 13.6534 88.8236 12.6346C89.8697 11.6066 90.3928 10.2934 90.3928 8.69523C90.3928 7.32135 89.8557 6.1157 88.7816 5.07828C87.7168 4.03151 86.4793 3.50813 85.0689 3.50813H74.3932V23.6958H73.3844V2.49875H85.0689C86.1804 2.49875 87.2218 2.7838 88.1932 3.35392C89.1739 3.92403 89.9538 4.69041 90.5329 5.65307C91.112 6.60637 91.4015 7.62043 91.4015 8.69523C91.4015 10.5364 90.7757 12.0785 89.5241 13.3216C88.2819 14.5553 86.7968 15.1721 85.0689 15.1721H78.9885V14.1627ZM78.9885 16.1815H85.0689C86.3765 16.1815 87.5907 15.859 88.7116 15.2142C89.8324 14.5693 90.729 13.672 91.4015 12.5225C92.074 11.3636 92.4102 10.0878 92.4102 8.69523C92.4102 7.4335 92.074 6.25122 91.4015 5.14837C90.7384 4.03618 89.8417 3.1483 88.7116 2.48473C87.5814 1.82115 86.3672 1.48936 85.0689 1.48936H72.3757V23.6958H71.367V0.47998H85.0689C86.5353 0.47998 87.913 0.858499 89.2019 1.61554C90.4908 2.36323 91.5136 3.37261 92.2701 4.64368C93.036 5.90541 93.419 7.25593 93.419 8.69523C93.419 10.3588 93.0594 11.8215 92.3402 13.0832C91.6303 14.345 90.6636 15.331 89.4401 16.0413L92.046 23.6958H90.9812L88.4874 16.5179C88.1138 16.6675 87.8289 16.7703 87.6328 16.8264L89.9725 23.6958H88.9077L86.624 17.0647C86.54 17.0834 86.2411 17.1161 85.7274 17.1628L87.899 23.6958H86.8342L84.6906 17.1909H83.78L85.8255 23.6958H84.7607L82.7012 17.1909H78.9885V16.1815ZM78.4281 23.6958H77.4194V6.53628H85.0689C85.6947 6.53628 86.2318 6.75124 86.6801 7.18116C87.1377 7.60173 87.3666 8.10643 87.3666 8.69523C87.3666 10.3215 86.6007 11.1346 85.0689 11.1346H78.9885V10.1252H85.0689C85.4705 10.1252 85.7834 10.0224 86.0076 9.81677C86.2411 9.60181 86.3578 9.22796 86.3578 8.69523C86.3578 8.36812 86.2318 8.09708 85.9796 7.88212C85.7367 7.65781 85.4332 7.54566 85.0689 7.54566H78.4281V23.6958Z" fill="white"/>
<path d="M105.594 16.8824L106 15.8731H109.447L109.853 16.8824H105.594ZM104.809 18.9012L105.202 17.8918H110.231L110.665 18.9012H104.809ZM104.025 20.92L104.417 19.9106H111.03L111.45 20.92H104.025ZM95.8287 23.6958H94.7359L103.913 0.47998H105.005L114.168 23.6958H113.089L104.459 1.83984L95.8287 23.6958ZM104.585 4.23713L105.159 5.52689L97.9863 23.6958H96.9075L104.585 4.23713ZM105.706 6.90077L106.238 8.28868L100.172 23.6958H99.0791L105.706 6.90077ZM106.771 9.67658L107.303 11.0925L102.329 23.6958H101.251L106.771 9.67658ZM120.683 23.6958H119.59L110.427 0.47998H111.506L120.683 23.6958ZM109.335 0.47998L118.511 23.6958H117.432L108.256 0.47998H109.335ZM107.163 0.47998L116.34 23.6958H115.247L106.084 0.47998H107.163Z" fill="white"/>
<path d="M128.5 0.47998H129.509V23.6958H128.5V0.47998ZM126.483 0.47998H127.492V23.6958H126.483V0.47998ZM124.466 0.47998H125.474V23.6958H124.466V0.47998ZM122.448 0.47998H123.457V23.6958H122.448V0.47998Z" fill="white"/>
<path d="M148.647 12.5225L147.638 10.8542V0.47998H148.647V12.5225ZM150.665 15.831L149.656 14.1347V0.47998H150.665V15.831ZM152.682 19.1816L151.673 17.4713V0.47998H152.682V19.1816ZM138.224 11.6533L139.232 13.3216V23.6958H138.224V11.6533ZM136.206 8.34475L137.215 10.0411V23.6958H136.206V8.34475ZM134.189 4.99416L135.197 6.70451V23.6958H134.189V4.99416ZM134.539 0.47998H135.716L149.978 23.6958H148.801L134.539 0.47998ZM136.921 0.47998H138.111L152.36 23.6958H151.155L136.921 0.47998ZM139.288 0.47998H140.465L153.691 22.0555V0.47998H154.699V23.6958C154.699 23.6958 154.303 23.6958 153.509 23.6958L139.288 0.47998ZM133.18 2.12023V23.6958H132.171V0.47998C132.171 0.47998 132.573 0.47998 133.376 0.47998L147.596 23.6958H146.433L133.18 2.12023Z" fill="white"/>
</svg>
